<svg width="360" height="220" viewBox="0 0 360 220" fill="none" xmlns="http://www.w3.org/2000/svg">
  <defs>
    <linearGradient id="a" x1="34" y1="22" x2="330" y2="198" gradientUnits="userSpaceOnUse">
      <stop stop-color="#B8D9FF" stop-opacity="0.72"/>
      <stop offset="1" stop-color="#8EE7F2" stop-opacity="0.58"/>
    </linearGradient>
  </defs>

  <rect x="88" y="20" width="248" height="156" rx="16" fill="#0A1628" fill-opacity="0.36" stroke="#9FC8EC" stroke-opacity="0.46"/>
  <rect x="106" y="36" width="214" height="20" rx="10" fill="#152742" fill-opacity="0.54"/>
  <rect x="112" y="39" width="74" height="14" rx="7" fill="#6BB5FF" fill-opacity="0.5"/>
  <rect x="194" y="39" width="52" height="14" rx="7" fill="#5CC3EE" fill-opacity="0.42"/>
  <rect x="250" y="39" width="36" height="14" rx="7" fill="#73D0F8" fill-opacity="0.34"/>
  <path d="M214 36V56" stroke="#B5D7F8" stroke-opacity="0.36"/>
  <path d="M265 36V56" stroke="#B5D7F8" stroke-opacity="0.28"/>
  <path d="M286 36V56" stroke="#B5D7F8" stroke-opacity="0.22"/>

  <path d="M116 82H312" stroke="#AACDEE" stroke-opacity="0.22"/>
  <path d="M116 106H312" stroke="#AACDEE" stroke-opacity="0.18"/>
  <path d="M116 130H312" stroke="#AACDEE" stroke-opacity="0.18"/>
  <path d="M116 154H312" stroke="#AACDEE" stroke-opacity="0.22"/>

  <path d="M120 144C128 132 138 138 146 124C154 110 164 114 172 102C180 92 190 98 198 90C206 82 216 92 224 86C232 80 242 88 250 84C258 80 268 86 276 82"
        stroke="url(#a)" stroke-width="2.2" stroke-linecap="round" stroke-opacity="0.62"/>

  <path d="M112 186H318" stroke="#9EC8EE" stroke-opacity="0.36"/>
  <circle cx="166" cy="186" r="5.2" fill="#7EC7FF" fill-opacity="0.56"/>
  <path d="M142 186H218" stroke="#B6D8F6" stroke-width="2" stroke-opacity="0.42"/>

  <path d="M104 170C112 164 118 176 126 170C134 164 140 176 148 170C156 164 162 176 170 170"
        stroke="#8CCEF8" stroke-opacity="0.42" stroke-width="1.8" stroke-linecap="round"/>
  <path d="M232 170C240 164 246 176 254 170C262 164 268 176 276 170C284 164 290 176 298 170"
        stroke="#8EDFE8" stroke-opacity="0.38" stroke-width="1.8" stroke-linecap="round"/>

  <path d="M84 64C90 62 94 68 98 66C102 64 106 70 110 68" stroke="#9FD2FF" stroke-opacity="0.48"/>
  <path d="M84 78C90 76 94 82 98 80C102 78 106 84 110 82" stroke="#9FD2FF" stroke-opacity="0.36"/>
</svg>
