<svg width="640" height="320" viewBox="0 0 640 320" fill="none" xmlns="http://www.w3.org/2000/svg">
  <defs>
    <linearGradient id="bg" x1="34" y1="26" x2="606" y2="286" gradientUnits="userSpaceOnUse">
      <stop stop-color="#66B3FF" stop-opacity="0.42"/>
      <stop offset="1" stop-color="#6CF3FF" stop-opacity="0.12"/>
    </linearGradient>
    <linearGradient id="line" x1="110" y1="120" x2="520" y2="226" gradientUnits="userSpaceOnUse">
      <stop stop-color="#9CD4FF"/>
      <stop offset="1" stop-color="#81F2E8"/>
    </linearGradient>
  </defs>

  <rect x="24" y="26" width="592" height="268" rx="24" fill="#0A1A2D" fill-opacity="0.9" stroke="#6FAEE1" stroke-opacity="0.48"/>
  <rect x="54" y="60" width="248" height="74" rx="14" fill="url(#bg)" stroke="#8BC6F8" stroke-opacity="0.42"/>
  <rect x="338" y="90" width="246" height="74" rx="14" fill="url(#bg)" stroke="#8BC6F8" stroke-opacity="0.42"/>
  <rect x="190" y="178" width="258" height="92" rx="16" fill="#0F2742" stroke="#85BCE9" stroke-opacity="0.4"/>

  <rect x="78" y="84" width="120" height="10" rx="5" fill="#CAE6FF" fill-opacity="0.7"/>
  <rect x="78" y="102" width="84" height="10" rx="5" fill="#CAE6FF" fill-opacity="0.45"/>

  <rect x="364" y="114" width="126" height="10" rx="5" fill="#C6FFF7" fill-opacity="0.7"/>
  <rect x="364" y="132" width="92" height="10" rx="5" fill="#C6FFF7" fill-opacity="0.45"/>

  <path d="M286 126C324 138 338 146 376 158" stroke="url(#line)" stroke-width="3" stroke-linecap="round" stroke-dasharray="2 10"/>
  <circle cx="286" cy="126" r="4" fill="#9FCEFF"/>
  <circle cx="376" cy="158" r="4" fill="#87F0E6"/>

  <rect x="214" y="198" width="210" height="14" rx="7" fill="#D8ECFF" fill-opacity="0.34"/>
  <rect x="214" y="220" width="152" height="14" rx="7" fill="#D8ECFF" fill-opacity="0.26"/>
  <rect x="214" y="242" width="176" height="14" rx="7" fill="#D8ECFF" fill-opacity="0.2"/>

  <path d="M526 56L530 66L540 70L530 74L526 84L522 74L512 70L522 66L526 56Z" fill="#87C6FF" fill-opacity="0.8"/>
  <path d="M108 196L111 203L118 206L111 209L108 216L105 209L98 206L105 203L108 196Z" fill="#7EEEDA" fill-opacity="0.76"/>
</svg>
