<svg width="680" height="360" viewBox="0 0 680 360" fill="none" xmlns="http://www.w3.org/2000/svg">
  <rect width="680" height="360" rx="20" fill="#111F33"/>
  <rect x="20" y="20" width="640" height="56" rx="14" fill="#152D4B"/>
  <rect x="38" y="40" width="192" height="14" rx="7" fill="#9BD7FF" fill-opacity="0.74"/>
  <rect x="520" y="34" width="122" height="28" rx="14" fill="#27527F"/>
  <rect x="20" y="88" width="640" height="164" rx="16" fill="#152945"/>
  <polyline points="44,226 124,190 204,198 284,170 364,176 444,138 524,152 604,116 636,126"
    stroke="#72C6FF" stroke-width="5" stroke-linecap="round" stroke-linejoin="round"/>
  <circle cx="124" cy="190" r="5" fill="#72C6FF"/>
  <circle cx="284" cy="170" r="5" fill="#72C6FF"/>
  <circle cx="444" cy="138" r="5" fill="#72C6FF"/>
  <circle cx="604" cy="116" r="5" fill="#72C6FF"/>
  <rect x="20" y="264" width="640" height="76" rx="16" fill="#152945"/>
  <rect x="40" y="286" width="600" height="14" rx="7" fill="#274A74"/>
  <rect x="40" y="306" width="460" height="14" rx="7" fill="#213D5F"/>
</svg>
