<svg width="680" height="360" viewBox="0 0 680 360" fill="none" xmlns="http://www.w3.org/2000/svg">
  <rect width="680" height="360" rx="20" fill="#101C30"/>
  <rect x="20" y="20" width="640" height="60" rx="14" fill="#173154"/>
  <rect x="38" y="42" width="220" height="14" rx="7" fill="#9CD9FF" fill-opacity="0.76"/>
  <rect x="20" y="92" width="640" height="164" rx="16" fill="#152945"/>
  <rect x="42" y="116" width="596" height="116" rx="12" fill="#1E385B"/>
  <polyline points="54,194 94,170 134,202 174,150 214,194 254,142 294,188 334,154 374,196 414,162 454,198 494,146 534,186 574,158 614,176"
    stroke="#73D0FF" stroke-width="4" stroke-linecap="round" stroke-linejoin="round"/>
  <rect x="20" y="268" width="640" height="72" rx="16" fill="#152945"/>
  <rect x="40" y="288" width="246" height="32" rx="16" fill="#2B5F8D"/>
  <rect x="298" y="288" width="246" height="32" rx="16" fill="#22506E"/>
  <rect x="556" y="288" width="84" height="32" rx="16" fill="#5AA2D7"/>
</svg>
