<svg xmlns="http://www.w3.org/2000/svg" width="512" height="512" viewBox="0 0 512 512" role="img" aria-label="hand pointer">
  <g fill="none" stroke="#FFFFFF" stroke-width="18" stroke-linecap="round" stroke-linejoin="round">
    <path d="M145 77 L169 120" />
    <path d="M206 63 L196 111" />
    <path d="M266 112 L224 136" />
    <path d="M121 125 L75 114" />
    <path d="M115 177 L72 201" />

    <path d="M168 211
             C168 185 187 168 214 168
             C231 168 245 176 255 193
             L274 224
             C283 208 298 199 317 199
             C333 199 346 206 356 220
             L365 235
             C374 220 389 212 406 212
             C421 212 434 219 443 233
             L465 270
             C487 306 500 345 503 386
             L508 433
             C509 444 505 454 496 460
             L356 542
             C347 547 336 548 326 544
             C311 537 298 526 289 512
             C275 490 254 472 224 459
             L130 417
             C95 401 74 379 74 354
             C74 336 86 321 104 316
             C122 311 141 316 157 327
             L203 356
             L123 218
             C111 197 118 171 139 160
             C160 149 186 157 197 178
             L253 274" />

    <path d="M507 426 L351 518" />
    <path d="M321 526 L479 435" />
    <path d="M252 273 L252 152
             C252 130 266 115 287 115
             C309 115 323 130 323 152
             L323 229" />

    <path d="M323 229
             L323 205
             C323 185 336 171 355 171
             C375 171 388 185 388 205
             L388 243" />

    <path d="M388 243
             L388 219
             C388 201 400 189 417 189
             C435 189 447 201 447 219
             L447 260" />
  </g>
</svg>
