<svg xmlns="http://www.w3.org/2000/svg" viewBox="0 0 512 512" role="img" aria-labelledby="title desc">
  <title id="title">Koelogs App Icon</title>
  <desc id="desc">Rounded K mark with voice-wave line and gradient finish</desc>
  <defs>
    <linearGradient id="lineGrad" x1="64" y1="256" x2="448" y2="256" gradientUnits="userSpaceOnUse">
      <stop offset="0" stop-color="#1f79d6" />
      <stop offset="0.6" stop-color="#2e8fe3" />
      <stop offset="1" stop-color="#63c0f7" />
    </linearGradient>
    <linearGradient id="tailGrad" x1="320" y1="192" x2="438" y2="300" gradientUnits="userSpaceOnUse">
      <stop offset="0" stop-color="#2a88df" />
      <stop offset="1" stop-color="#63c0f7" />
    </linearGradient>
  </defs>

  <rect x="20" y="20" width="472" height="472" rx="110" fill="#f6fbff" />

  <path
    d="M132 140V272M132 206L244 152M132 206L246 262"
    fill="none"
    stroke="#1f79d6"
    stroke-width="24"
    stroke-linecap="round"
    stroke-linejoin="round"
  />

  <path
    d="M78 320C106 320 110 356 126 356C142 356 148 294 162 294C174 294 182 348 198 348C214 348 224 304 242 300C296 288 352 296 392 292"
    fill="none"
    stroke="url(#lineGrad)"
    stroke-width="24"
    stroke-linecap="round"
    stroke-linejoin="round"
  />

  <path
    d="M392 292C410 292 424 278 424 260C424 244 414 236 398 236H366"
    fill="none"
    stroke="url(#tailGrad)"
    stroke-width="24"
    stroke-linecap="round"
    stroke-linejoin="round"
  />
</svg>
